<svg width="211" height="81" viewBox="0 0 211 81" fill="none" xmlns="http://www.w3.org/2000/svg">
<path d="M8.00333 69V29.9552H0.314417V23.2667H23.2382V29.9552H15.5493V69H8.00333ZM20.9775 69L26.98 23.2667H40.2712L46.2737 69H38.4991L37.4986 58.5957H29.7526L28.7521 69H20.9775ZM30.4671 51.9358H36.7841L35.7836 41.9316L34.9547 29.9552H32.2965L31.4676 41.9316L30.4671 51.9358ZM48.6988 69V23.2667H56.2734V62.3115H67.3637V69H48.6988ZM69.3146 69V23.2667H76.8891V69H69.3146ZM91.97 69.5145C87.9683 69.5145 85.0719 68.7046 83.2806 67.0849C81.5085 65.4461 80.5462 62.7307 80.3937 58.9387C80.3747 58.2146 80.3651 57.4619 80.3651 56.6806C80.3651 55.8803 80.3842 55.0894 80.4223 54.3082C80.4604 53.5078 80.5176 52.7361 80.5938 51.9929H87.7111C87.6348 53.4602 87.5872 54.8989 87.5681 56.309C87.5681 57.7191 87.6158 59.0435 87.7111 60.2821C87.8063 61.292 88.197 62.0543 88.883 62.5688C89.588 63.0642 90.6075 63.3119 91.9414 63.3119C93.1991 63.3119 94.1614 63.0642 94.8283 62.5688C95.5143 62.0543 95.9049 61.292 96.0002 60.2821C96.0764 59.577 96.1241 58.872 96.1431 58.1669C96.1812 57.4428 96.1812 56.7282 96.1431 56.0232C96.1241 55.2991 96.0764 54.5845 96.0002 53.8794C95.9431 52.9076 95.6096 52.0787 94.9998 51.3927C94.4091 50.6876 93.6087 50.2208 92.5988 49.9921L87.854 48.9059C85.9675 48.4676 84.4716 47.8007 83.3664 46.9051C82.2802 45.9904 81.4894 44.8376 80.994 43.4465C80.5176 42.0364 80.2508 40.3786 80.1936 38.473C80.1746 37.5393 80.1651 36.6627 80.1651 35.8433C80.1841 35.0049 80.2032 34.1474 80.2222 33.2708C80.3175 30.7555 80.7748 28.7261 81.5942 27.1826C82.4136 25.6391 83.6713 24.5148 85.3672 23.8098C87.0632 23.1047 89.2546 22.7522 91.9414 22.7522C95.8859 22.7522 98.7442 23.562 100.516 25.1818C102.289 26.8015 103.251 29.4978 103.403 33.2708C103.441 34.1855 103.441 35.2717 103.403 36.5293C103.384 37.768 103.356 38.9589 103.318 40.1023H96.0288C96.086 38.6731 96.1241 37.2916 96.1431 35.9577C96.1622 34.6047 96.1431 33.2613 96.086 31.9274C96.0669 30.9365 95.7049 30.1934 94.9998 29.6979C94.3138 29.1834 93.2943 28.9262 91.9414 28.9262C90.6647 28.9262 89.6738 29.1834 88.9687 29.6979C88.2827 30.1934 87.8826 30.9365 87.7682 31.9274C87.6729 33.0327 87.6253 34.1283 87.6253 35.2145C87.6253 36.2816 87.6729 37.3678 87.7682 38.473C87.8635 39.4639 88.1207 40.2928 88.54 40.9598C88.9782 41.6267 89.6928 42.0745 90.6837 42.3032L94.9141 43.1893C96.972 43.6275 98.6204 44.3231 99.859 45.2758C101.117 46.2096 102.041 47.4005 102.632 48.8488C103.222 50.2779 103.556 51.9548 103.632 53.8794C103.651 54.413 103.661 54.9751 103.661 55.5658C103.661 56.1375 103.651 56.7092 103.632 57.2808C103.613 57.8525 103.594 58.4051 103.575 58.9387C103.422 62.7307 102.451 65.4461 100.659 67.0849C98.8681 68.7046 95.9716 69.5145 91.97 69.5145ZM106.973 69V23.2667H121.036L124.552 40.9312L125.552 62.2829H127.925L128.896 40.9312L132.441 23.2667H146.447V69H138.672V54.8798L140.044 29.9552H137.414L134.899 55.5944L131.469 68.9428H121.751L118.606 55.5944L116.005 29.9552H113.433L114.776 54.8798V69H106.973ZM148.899 69L154.902 23.2667H168.193L174.195 69H166.421L165.42 58.5957H157.674L156.674 69H148.899ZM158.389 51.9358H164.706L163.705 41.9316L162.876 29.9552H160.218L159.389 41.9316L158.389 51.9358ZM166.078 15.0347H169.107C168.993 17.0927 168.545 18.5885 167.764 19.5223C167.002 20.4369 165.916 20.8943 164.506 20.8943C163.629 20.8943 162.933 20.7609 162.419 20.4941C161.904 20.2273 161.466 19.9224 161.104 19.5794C160.742 19.2364 160.38 18.9315 160.018 18.6648C159.675 18.398 159.237 18.2646 158.703 18.2646C158.15 18.2646 157.76 18.4552 157.531 18.8363C157.303 19.1983 157.131 19.7605 157.017 20.5227H153.987C154.158 18.3694 154.625 16.8068 155.387 15.835C156.15 14.8632 157.274 14.3773 158.76 14.3773C159.637 14.3773 160.323 14.5107 160.818 14.7774C161.333 15.0252 161.752 15.33 162.076 15.6921C162.419 16.0351 162.762 16.34 163.105 16.6068C163.448 16.8545 163.905 16.9784 164.477 16.9784C165.049 16.9784 165.449 16.8069 165.677 16.4639C165.925 16.1209 166.059 15.6445 166.078 15.0347Z" fill="#FF5189"/>
<path d="M209.499 4.24458L199.587 0.561294C198.953 0.193627 198.233 0 197.5 0C196.766 0 196.046 0.193627 195.412 0.561294L185.501 4.24458C185.462 4.26749 185.429 4.30021 185.407 4.33948C185.384 4.37876 185.372 4.42324 185.372 4.4685C185.372 4.51377 185.384 4.55824 185.407 4.59752C185.429 4.6368 185.462 4.66952 185.501 4.69242L197.37 10.6363C197.41 10.6598 197.456 10.6722 197.502 10.6722C197.548 10.6722 197.594 10.6598 197.634 10.6363L209.501 4.69242C209.54 4.6694 209.572 4.63659 209.594 4.59725C209.617 4.55791 209.628 4.5134 209.628 4.46813C209.628 4.42287 209.616 4.37843 209.594 4.33921C209.571 4.3 209.538 4.26738 209.499 4.24458ZM209.499 4.24458L199.587 0.561294C198.953 0.193627 198.233 0 197.5 0C196.766 0 196.046 0.193627 195.412 0.561294L185.501 4.24458C185.462 4.26749 185.429 4.30021 185.407 4.33948C185.384 4.37876 185.372 4.42324 185.372 4.4685C185.372 4.51377 185.384 4.55824 185.407 4.59752C185.429 4.6368 185.462 4.66952 185.501 4.69242L197.37 10.6363C197.41 10.6598 197.456 10.6722 197.502 10.6722C197.548 10.6722 197.594 10.6598 197.634 10.6363L209.501 4.69242C209.54 4.6694 209.572 4.63659 209.594 4.59725C209.617 4.55791 209.628 4.5134 209.628 4.46813C209.628 4.42287 209.616 4.37843 209.594 4.33921C209.571 4.3 209.538 4.26738 209.499 4.24458ZM209.499 4.24458L199.587 0.561294C198.953 0.193627 198.233 0 197.5 0C196.766 0 196.046 0.193627 195.412 0.561294L185.501 4.24458C185.462 4.26749 185.429 4.30021 185.407 4.33948C185.384 4.37876 185.372 4.42324 185.372 4.4685C185.372 4.51377 185.384 4.55824 185.407 4.59752C185.429 4.6368 185.462 4.66952 185.501 4.69242L197.37 10.6363C197.41 10.6598 197.456 10.6722 197.502 10.6722C197.548 10.6722 197.594 10.6598 197.634 10.6363L209.501 4.69242C209.54 4.6694 209.572 4.63659 209.594 4.59725C209.617 4.55791 209.628 4.5134 209.628 4.46813C209.628 4.42287 209.616 4.37843 209.594 4.33921C209.571 4.3 209.538 4.26738 209.499 4.24458Z" fill="#2F76FF"/>
<path d="M184.389 6.45843L196.332 12.3861C196.371 12.4089 196.404 12.4416 196.427 12.481C196.449 12.5204 196.461 12.5651 196.462 12.6107V23.6281C196.461 23.6736 196.449 23.7184 196.427 23.7578C196.404 23.7972 196.371 23.83 196.332 23.8527C196.292 23.8755 196.247 23.8874 196.202 23.8874C196.156 23.8874 196.112 23.8754 196.072 23.8527L187.624 18.5805C187.154 18.3068 186.764 17.9147 186.493 17.4435C186.221 16.9722 186.078 16.438 186.077 15.8941L184 6.68299C184 6.63744 184.012 6.59271 184.035 6.55328C184.058 6.51385 184.09 6.48111 184.13 6.45836C184.169 6.43561 184.214 6.42363 184.26 6.42365C184.305 6.42366 184.35 6.43565 184.389 6.45843Z" fill="#FF5189"/>
<path d="M198.668 12.4347L210.611 6.46032C210.65 6.43746 210.695 6.42546 210.741 6.42554C210.787 6.42561 210.831 6.43775 210.871 6.46074C210.91 6.48372 210.943 6.51674 210.966 6.55644C210.989 6.59614 211 6.64112 211 6.68684L208.923 15.8941C208.922 16.4378 208.778 16.9717 208.507 17.4428C208.235 17.9138 207.845 18.3056 207.375 18.5792L198.928 23.8513C198.888 23.8741 198.844 23.8861 198.798 23.8861C198.753 23.8861 198.708 23.8741 198.668 23.8514C198.629 23.8286 198.596 23.7959 198.573 23.7564C198.551 23.717 198.538 23.6723 198.538 23.6267V12.6586C198.539 12.6132 198.551 12.5686 198.573 12.5293C198.596 12.4901 198.629 12.4574 198.668 12.4347Z" fill="#533BEB"/>
</svg>
