<svg width="512" height="512" viewBox="0 0 512 512" fill="none" xmlns="http://www.w3.org/2000/svg">
<path d="M483.544 110.49L295.581 40.6438C283.553 33.6717 269.897 30 255.994 30C242.091 30 228.434 33.6717 216.406 40.6438L28.4553 110.49C27.715 110.924 27.1011 111.545 26.6745 112.289C26.248 113.034 26.0236 113.878 26.0236 114.736C26.0236 115.594 26.248 116.438 26.6745 117.183C27.1011 117.927 27.715 118.548 28.4553 118.982L253.538 231.696C254.295 232.142 255.158 232.377 256.037 232.377C256.915 232.377 257.778 232.142 258.535 231.696L483.569 118.982C484.308 118.546 484.92 117.924 485.345 117.178C485.769 116.431 485.991 115.587 485.988 114.729C485.986 113.871 485.759 113.028 485.33 112.284C484.902 111.541 484.286 110.922 483.544 110.49ZM483.544 110.49L295.581 40.6438C283.553 33.6717 269.897 30 255.994 30C242.091 30 228.434 33.6717 216.406 40.6438L28.4553 110.49C27.715 110.924 27.1011 111.545 26.6745 112.289C26.248 113.034 26.0236 113.878 26.0236 114.736C26.0236 115.594 26.248 116.438 26.6745 117.183C27.1011 117.927 27.715 118.548 28.4553 118.982L253.538 231.696C254.295 232.142 255.158 232.377 256.037 232.377C256.915 232.377 257.778 232.142 258.535 231.696L483.569 118.982C484.308 118.546 484.92 117.924 485.345 117.178C485.769 116.431 485.991 115.587 485.988 114.729C485.986 113.871 485.759 113.028 485.33 112.284C484.902 111.541 484.286 110.922 483.544 110.49ZM483.544 110.49L295.581 40.6438C283.553 33.6717 269.897 30 255.994 30C242.091 30 228.434 33.6717 216.406 40.6438L28.4553 110.49C27.715 110.924 27.1011 111.545 26.6745 112.289C26.248 113.034 26.0236 113.878 26.0236 114.736C26.0236 115.594 26.248 116.438 26.6745 117.183C27.1011 117.927 27.715 118.548 28.4553 118.982L253.538 231.696C254.295 232.142 255.158 232.377 256.037 232.377C256.915 232.377 257.778 232.142 258.535 231.696L483.569 118.982C484.308 118.546 484.92 117.924 485.345 117.178C485.769 116.431 485.991 115.587 485.988 114.729C485.986 113.871 485.759 113.028 485.33 112.284C484.902 111.541 484.286 110.922 483.544 110.49Z" fill="#2F76FF"/>
<path d="M7.38461 152.471L233.846 264.877C234.594 265.309 235.215 265.93 235.647 266.677C236.079 267.425 236.307 268.273 236.308 269.136V478.059C236.307 478.923 236.079 479.771 235.646 480.519C235.214 481.266 234.592 481.887 233.844 482.319C233.096 482.75 232.247 482.977 231.383 482.977C230.52 482.977 229.671 482.749 228.923 482.317L68.7261 382.342C59.8143 377.151 52.4167 369.717 47.2691 360.78C42.1215 351.843 39.4032 341.714 39.3846 331.4L0 156.73C0.000885433 155.866 0.229005 155.018 0.661457 154.27C1.09391 153.522 1.71547 152.902 2.46372 152.47C3.21197 152.039 4.06059 151.812 4.92434 151.812C5.78809 151.812 6.63658 152.039 7.38461 152.471Z" fill="#FF5189"/>
<path d="M278.154 265.801L504.615 152.508C505.366 152.075 506.218 151.847 507.085 151.849C507.952 151.85 508.803 152.081 509.552 152.516C510.301 152.952 510.922 153.578 511.352 154.331C511.782 155.084 512.005 155.937 512 156.804L472.615 331.401C472.591 341.711 469.869 351.836 464.719 360.768C459.57 369.701 452.172 377.13 443.261 382.318L283.077 482.293C282.329 482.725 281.48 482.952 280.616 482.953C279.753 482.953 278.904 482.726 278.156 482.294C277.408 481.863 276.786 481.242 276.354 480.494C275.921 479.747 275.693 478.898 275.692 478.035V270.047C275.695 269.186 275.924 268.34 276.356 267.595C276.788 266.85 277.408 266.231 278.154 265.801Z" fill="#533BEB"/>
</svg>
