<svg width="16" height="16" viewBox="0 0 16 16" fill="none" xmlns="http://www.w3.org/2000/svg">
    <path d="M15.1108 3.45281L9.23691 1.27012C8.86103 1.05224 8.43427 0.9375 7.9998 0.9375C7.56533 0.9375 7.13857 1.05224 6.76268 1.27012L0.889224 3.45281C0.866089 3.46638 0.846905 3.48577 0.833575 3.50905C0.820245 3.53232 0.813232 3.55868 0.813232 3.5855C0.813232 3.61233 0.820245 3.63868 0.833575 3.66196C0.846905 3.68523 0.866089 3.70462 0.889224 3.71819L7.92307 7.2405C7.94673 7.25444 7.97369 7.26179 8.00115 7.26179C8.0286 7.26179 8.05556 7.25444 8.07922 7.2405L15.1115 3.71819C15.1346 3.70455 15.1538 3.68511 15.167 3.6618C15.1803 3.63848 15.1872 3.6121 15.1871 3.58528C15.1871 3.55846 15.18 3.53212 15.1666 3.50889C15.1532 3.48565 15.1339 3.46632 15.1108 3.45281ZM15.1108 3.45281L9.23691 1.27012C8.86103 1.05224 8.43427 0.9375 7.9998 0.9375C7.56533 0.9375 7.13857 1.05224 6.76268 1.27012L0.889224 3.45281C0.866089 3.46638 0.846905 3.48577 0.833575 3.50905C0.820245 3.53232 0.813232 3.55868 0.813232 3.5855C0.813232 3.61233 0.820245 3.63868 0.833575 3.66196C0.846905 3.68523 0.866089 3.70462 0.889224 3.71819L7.92307 7.2405C7.94673 7.25444 7.97369 7.26179 8.00115 7.26179C8.0286 7.26179 8.05556 7.25444 8.07922 7.2405L15.1115 3.71819C15.1346 3.70455 15.1538 3.68511 15.167 3.6618C15.1803 3.63848 15.1872 3.6121 15.1871 3.58528C15.1871 3.55846 15.18 3.53212 15.1666 3.50889C15.1532 3.48565 15.1339 3.46632 15.1108 3.45281ZM15.1108 3.45281L9.23691 1.27012C8.86103 1.05224 8.43427 0.9375 7.9998 0.9375C7.56533 0.9375 7.13857 1.05224 6.76268 1.27012L0.889224 3.45281C0.866089 3.46638 0.846905 3.48577 0.833575 3.50905C0.820245 3.53232 0.813232 3.55868 0.813232 3.5855C0.813232 3.61233 0.820245 3.63868 0.833575 3.66196C0.846905 3.68523 0.866089 3.70462 0.889224 3.71819L7.92307 7.2405C7.94673 7.25444 7.97369 7.26179 8.00115 7.26179C8.0286 7.26179 8.05556 7.25444 8.07922 7.2405L15.1115 3.71819C15.1346 3.70455 15.1538 3.68511 15.167 3.6618C15.1803 3.63848 15.1872 3.6121 15.1871 3.58528C15.1871 3.55846 15.18 3.53212 15.1666 3.50889C15.1532 3.48565 15.1339 3.46632 15.1108 3.45281Z" fill="black"/>
    <path d="M0.230769 4.76475L7.30769 8.27744C7.33106 8.29093 7.35046 8.31033 7.36396 8.33369C7.37746 8.35704 7.38459 8.38354 7.38461 8.41052V14.9394C7.38459 14.9664 7.37746 14.9929 7.36394 15.0162C7.35043 15.0396 7.33101 15.059 7.30762 15.0725C7.28424 15.086 7.25772 15.0931 7.23073 15.0931C7.20374 15.093 7.17722 15.0859 7.15384 15.0724L2.14769 11.9482C1.8692 11.786 1.63802 11.5537 1.47716 11.2744C1.3163 10.9951 1.23135 10.6786 1.23077 10.3563L0 4.89783C2.76698e-05 4.87084 0.00715641 4.84433 0.0206705 4.82096C0.0341846 4.7976 0.0536084 4.7782 0.0769913 4.76471C0.100374 4.75123 0.126893 4.74413 0.153886 4.74414C0.180878 4.74415 0.207393 4.75126 0.230769 4.76475Z" fill="black"/>
    <path d="M8.69228 8.30624L15.7692 4.76585C15.7927 4.75231 15.8193 4.7452 15.8464 4.74524C15.8735 4.74528 15.9001 4.75248 15.9235 4.7661C15.9469 4.77972 15.9663 4.79928 15.9797 4.82281C15.9932 4.84634 16.0001 4.87299 16 4.90008L14.7692 10.3562C14.7684 10.6784 14.6834 10.9948 14.5225 11.274C14.3615 11.5531 14.1303 11.7853 13.8519 11.9474L8.84613 15.0716C8.82275 15.0851 8.79623 15.0922 8.76924 15.0922C8.74225 15.0922 8.71573 15.0851 8.69235 15.0717C8.66896 15.0582 8.64954 15.0388 8.63603 15.0154C8.62251 14.992 8.61538 14.9655 8.61536 14.9385V8.43893C8.61545 8.41201 8.62261 8.3856 8.6361 8.36231C8.6496 8.33903 8.66897 8.31969 8.69228 8.30624Z" fill="black"/>
</svg>
    